<?xml version="1.0" encoding="utf-8"?>
<svg version="1.1" id="Layer_1"
xmlns="http://www.w3.org/2000/svg"
xmlns:xlink="http://www.w3.org/1999/xlink"
width="550px" height="400px"
xml:space="preserve">
<g id="PathID_9" transform="matrix(2.14973, 0, 0, 3.07787, 274.05, 213.2)" opacity="1">
<radialGradient
id="RadialGradID_2" gradientUnits="userSpaceOnUse" gradientTransform="matrix(0.175842, 0, 0, 0.175842, 0.05, 0.05)" spreadMethod ="pad" cx="0" cy="0" r="819.2" fx="0" fy="0" >
<stop  offset="0.141176"  style="stop-color:#FFFFFF;stop-opacity:1" />
<stop  offset="1"  style="stop-color:#DCD6AB;stop-opacity:1" />
</radialGradient>
<path style="fill:url(#RadialGradID_2) " d="M-128.5 -65L128.55 -65L128.55 65.05L-128.5 65.05L-128.5 -65" />
</g>
<g id="PathID_10" transform="matrix(2.14973, 0, 0, 3.07787, 274.05, 213.2)" opacity="1">
</g>
<g id="PathID_11" transform="matrix(11.0379, 0, 0, 7.34561, 276.15, 213.4)" opacity="1">
<linearGradient
id="LinearGradID_3" gradientUnits="userSpaceOnUse" gradientTransform="matrix(-0.0132113, 0.0344167, -0.0344167, -0.0132113, 0, 0)" spreadMethod ="pad" x1="-819.2" y1="0" x2="819.2" y2="0" >
<stop  offset="0" style="stop-color:#FFE791;stop-opacity:1" />
<stop  offset="0.490196" style="stop-color:#C4801F;stop-opacity:1" />
<stop  offset="1" style="stop-color:#592E05;stop-opacity:1" />
</linearGradient>
<path style="fill:url(#LinearGradID_3) " d="M22.2 -21.8L29.85 -29.05L29.95 28.75L30.2 29.05L-30.2 26.65L-22.3 18L21.8 20.55L22.2 -21.8" />
</g>
<g id="PathID_12" transform="matrix(11.0379, 0, 0, 7.34561, 276.15, 213.4)" opacity="1">
</g>
<g id="PathID_13" transform="matrix(11.0379, 0, 0, 7.34561, -8.55, 187.65)" opacity="1">
<linearGradient
id="LinearGradID_4" gradientUnits="userSpaceOnUse" gradientTransform="matrix(0.00917378, 0.000964203, -0.000964203, 0.00917378, -0.7, 0.95)" spreadMethod ="pad" x1="-819.2" y1="0" x2="819.2" y2="0" >
<stop  offset="0" style="stop-color:#EEC970;stop-opacity:1" />
<stop  offset="0.411765" style="stop-color:#C4801F;stop-opacity:1" />
<stop  offset="1" style="stop-color:#592E05;stop-opacity:1" />
</linearGradient>
<path style="fill:url(#LinearGradID_4) " d="M3.35 21.7L-4.55 30.35L-3 -30.3L4.55 -21.2L3.35 21.7" />
</g>
<g id="PathID_14" transform="matrix(11.0379, 0, 0, 7.34561, -8.55, 187.65)" opacity="1">
</g>
<g id="PathID_15" transform="matrix(11.0379, 0, 0, 7.34561, 284, 9.95)" opacity="1">
<linearGradient
id="LinearGradID_5" gradientUnits="userSpaceOnUse" gradientTransform="matrix(0.0347486, 0.00996401, -0.00996401, 0.0347486, -0.55, -0.1)" spreadMethod ="pad" x1="-819.2" y1="0" x2="819.2" y2="0" >
<stop  offset="0" style="stop-color:#FFE791;stop-opacity:1" />
<stop  offset="0.490196" style="stop-color:#C4801F;stop-opacity:1" />
<stop  offset="1" style="stop-color:#592E05;stop-opacity:1" />
</linearGradient>
<path style="fill:url(#LinearGradID_5) " d="M21.65 6L-22.1 3.2L-29.55 -6L29.55 -1.35L21.65 6" />
</g>
<g id="PathID_16" transform="matrix(11.0379, 0, 0, 7.34561, 284, 9.95)" opacity="1">
</g>
<g id="PathID_17" transform="matrix(11.0379, 0, 0, 7.34561, 274.05, 238)" opacity="1">
<linearGradient
id="LinearGradID_6" gradientUnits="userSpaceOnUse" gradientTransform="matrix(0.0247884, 0.00710796, -0.00710796, 0.0247884, 0, 0)" spreadMethod ="pad" x1="-819.2" y1="0" x2="819.2" y2="0" >
<stop  offset="0" style="stop-color:#FFE791;stop-opacity:1" />
<stop  offset="0.490196" style="stop-color:#D78914;stop-opacity:1" />
<stop  offset="0.988235" style="stop-color:#895509;stop-opacity:1" />
</linearGradient>
<path style="fill:url(#LinearGradID_6) " d="M15.75 -13.75L21.15 -17.1L14 16.8L14.15 17.1L-21.1 8.05L-15.4 4L10.25 11.05L15.75 -13.75" />
</g>
<g id="PathID_18" transform="matrix(11.0379, 0, 0, 7.34561, 274.05, 238)" opacity="1">
</g>
<g id="PathID_19" transform="matrix(11.0379, 0, 0, 7.34561, 321.65, 87.95)" opacity="1">
<linearGradient
id="LinearGradID_7" gradientUnits="userSpaceOnUse" gradientTransform="matrix(0.0208997, 0.0059929, -0.0059929, 0.0208997, -0.7, 0.4)" spreadMethod ="pad" x1="-819.2" y1="0" x2="819.2" y2="0" >
<stop  offset="0" style="stop-color:#FFE791;stop-opacity:1" />
<stop  offset="0.490196" style="stop-color:#C4801F;stop-opacity:1" />
<stop  offset="1" style="stop-color:#592E05;stop-opacity:1" />
</linearGradient>
<path style="fill:url(#LinearGradID_7) " d="M11.6 6.75L-13.9 -0.3L-17.15 -6.7L17.15 3.45L11.6 6.75" />
</g>
<g id="PathID_20" transform="matrix(11.0379, 0, 0, 7.34561, 321.65, 87.95)" opacity="1">
</g>
<g id="PathID_21" transform="matrix(11.0379, 0, 0, 7.34561, 103.9, 167.45)" opacity="1">
<linearGradient
id="LinearGradID_8" gradientUnits="userSpaceOnUse" gradientTransform="matrix(0.00533473, 0.00152971, -0.00152971, 0.00533473, 0.1, 0.95)" spreadMethod ="pad" x1="-819.2" y1="0" x2="819.2" y2="0" >
<stop  offset="0" style="stop-color:#FFE791;stop-opacity:1" />
<stop  offset="0.490196" style="stop-color:#D78914;stop-opacity:1" />
<stop  offset="0.988235" style="stop-color:#895509;stop-opacity:1" />
</linearGradient>
<path style="fill:url(#LinearGradID_8) " d="M-0.1 13.65L-5.9 17.75L2.65 -17.7L5.95 -11.4L-0.1 13.65" />
</g>
<g id="PathID_22" transform="matrix(11.0379, 0, 0, 7.34561, 103.9, 167.45)" opacity="1">
</g>
</svg>
